HIERARCHY
ROOT Hips
{
    OFFSET 0.000000 0.000000 0.000000
    CHANNELS 6 Xposition Yposition Zposition Zrotation Xrotation Yrotation
    JOINT Spine
    {
        OFFSET -0.000000 7.236184 0.000000
        CHANNELS 3 Zrotation Xrotation Yrotation
        JOINT Spine1
        {
            OFFSET -0.000000 20.420147 0.000000
            CHANNELS 3 Zrotation Xrotation Yrotation
            JOINT Neck
            {
                OFFSET -0.000000 20.336288 1.848754
                CHANNELS 3 Zrotation Xrotation Yrotation
                JOINT Head
                {
                    OFFSET -0.000000 12.354461 -1.764923
                    CHANNELS 3 Zrotation Xrotation Yrotation
                    End Site
                    {
                        OFFSET -0.000000 22.061537 0.000000
                    }
                }
            }
            JOINT LeftShoulder
            {
                OFFSET 3.573296 18.396038 -0.314103
                CHANNELS 3 Zrotation Xrotation Yrotation
                JOINT LeftArm
                {
                    OFFSET 10.880760 0.000000 0.000000
                    CHANNELS 3 Zrotation Xrotation Yrotation
                    JOINT LeftForeArm
                    {
                        OFFSET 27.185530 0.000000 0.000000
                        CHANNELS 3 Zrotation Xrotation Yrotation
                        JOINT LeftHand
                        {
                            OFFSET 27.825975 0.000000 0.000000
                            CHANNELS 3 Zrotation Xrotation Yrotation
                            End Site
                            {
                                OFFSET 13.236923 0.000000 0.000000
                            }
                        }
                    }
                }
            }
            JOINT RightShoulder
            {
                OFFSET -3.474926 18.396038 -0.314103
                CHANNELS 3 Zrotation Xrotation Yrotation
                JOINT RightArm
                {
                    OFFSET -10.880760 0.000000 0.000000
                    CHANNELS 3 Zrotation Xrotation Yrotation
                    JOINT RightForeArm
                    {
                        OFFSET -27.185530 0.000000 0.000000
                        CHANNELS 3 Zrotation Xrotation Yrotation
                        JOINT RightHand
                        {
                            OFFSET -27.825975 0.000000 0.000000
                            CHANNELS 3 Zrotation Xrotation Yrotation
                            End Site
                            {
                                OFFSET -13.236923 0.000000 0.000000
                            }
                        }
                    }
                }
            }
        }
    }
    JOINT LeftUpLeg
    {
        OFFSET 8.824615 0.000000 0.000000
        CHANNELS 3 Zrotation Xrotation Yrotation
        JOINT LeftLeg
        {
            OFFSET -0.000000 -35.111282 0.000000
            CHANNELS 3 Zrotation Xrotation Yrotation
            JOINT LeftFoot
            {
                OFFSET -0.000000 -42.324711 0.000000
                CHANNELS 3 Zrotation Xrotation Yrotation
                JOINT LeftToeBase
                {
                    OFFSET -0.000000 -5.735999 13.236923
                    CHANNELS 3 Zrotation Xrotation Yrotation
                    End Site
                    {
                        OFFSET -0.000000 0.000000 3.529846
                    }
                }
            }
        }
    }
    JOINT RightUpLeg
    {
        OFFSET -8.824615 0.000000 0.000000
        CHANNELS 3 Zrotation Xrotation Yrotation
        JOINT RightLeg
        {
            OFFSET -0.000000 -35.111282 0.000000
            CHANNELS 3 Zrotation Xrotation Yrotation
            JOINT RightFoot
            {
                OFFSET -0.000000 -42.324711 0.000000
                CHANNELS 3 Zrotation Xrotation Yrotation
                JOINT RightToeBase
                {
                    OFFSET -0.000000 -5.735999 13.236923
                    CHANNELS 3 Zrotation Xrotation Yrotation
                    End Site
                    {
                        OFFSET -0.000000 0.000000 3.529846
                    }
                }
            }
        }
    }
}
MOTION
Frames:    13
Frame Time:    0.008333
-12.789289    84.851875    104.121819    -1.232406    -14.249304    170.322067    -2.895680    -10.295804    -0.220238    4.834135    1.411725    -0.018852    4.583645    6.442349    -0.976104    2.075703    -3.074143    -1.081608    3.061652    13.700309    2.741287    -56.502193    23.238970    -18.897108    4.405623    -1.884865    -15.546476    27.172220    -1.647232    -1.506455    7.174901    16.053961    -9.701210    47.693081    38.677681    28.615833    -5.137503    -12.640923    21.437767    -20.625072    -11.241836    -2.510136    2.440041    -23.794434    -0.878473    -1.943325    23.370655    16.505543    -0.881764    -11.801723    -13.329503    0.243049    -1.633574    -0.270217    -19.456104    -29.442720    -6.346367    10.401427    24.148952    -6.335391    17.804667    9.542643    2.151162    -1.812704    -3.687850    1.970823    
-13.073248    84.877815    104.274940    -1.328994    -14.281797    169.117325    -2.746494    -9.981182    -0.279528    4.948526    1.215221    -0.092778    4.796668    6.497594    -0.409174    1.647574    -3.078521    -0.580853    3.027722    13.737151    2.753346    -56.527390    23.122690    -18.712244    4.439780    -2.197265    -15.292369    27.075569    -1.913076    -1.296217    7.189181    16.048962    -9.668505    47.691200    38.165073    28.579836    -5.161951    -12.723364    21.376049    -20.864639    -11.302960    -2.591498    2.562032    -23.794252    -0.728239    -2.188683    23.336519    17.397823    -0.696437    -11.855206    -13.170852    0.246232    -1.667266    -0.273773    -20.412045    -31.500702    -7.191150    11.431103    26.465326    -7.010226    18.810648    10.868244    2.220195    -1.655010    -3.651259    1.799282    
-13.370212    84.890816    104.435753    -1.425683    -14.296861    167.870682    -2.585193    -9.626041    -0.335664    5.074705    1.029992    -0.163917    4.982797    6.558277    0.180542    1.208657    -3.124337    -0.055042    2.966850    13.777806    2.768723    -56.500450    23.071354    -18.550493    4.463707    -2.532683    -15.057113    26.902449    -2.195013    -1.055213    7.198628    16.055780    -9.625489    47.695015    37.579056    28.527296    -5.173037    -12.808130    21.356390    -21.138765    -11.362211    -2.692791    2.705404    -23.817043    -0.605320    -2.483791    23.358583    18.380531    -0.516576    -11.921803    -13.021112    0.241801    -1.704883    -0.268866    -21.489420    -33.716209    -8.308134    12.497794    29.047916    -7.627634    19.871967    12.114114    2.133294    -1.420056    -3.532602    1.543584    
-13.669464    84.886192    104.598083    -1.516321    -14.291355    166.636017    -2.417053    -9.243925    -0.384999    5.207144    0.872630    -0.229081    5.131330    6.614230    0.767681    0.778688    -3.213281    0.473093    2.879618    13.816587    2.785860    -56.413940    23.080915    -18.430082    4.478563    -2.867274    -14.853765    26.655708    -2.473022    -0.800112    7.201855    16.074202    -9.573152    47.704845    36.936321    28.458235    -5.165003    -12.890172    21.376650    -21.437771    -11.416617    -2.808716    2.868774    -23.869238    -0.508970    -2.823319    23.451969    19.409929    -0.351854    -12.004680    -12.885355    0.229590    -1.742196    -0.255306    -22.677584    -36.007915    -9.697927    13.554271    31.822990    -8.167976    20.913979    13.199305    1.924932    -1.121833    -3.338752    1.219080    
-13.963333    84.861252    104.757462    -1.596732    -14.264700    165.452454    -2.246409    -8.847792    -0.424906    5.340047    0.754739    -0.286183    5.239573    6.657261    1.333680    0.370930    -3.344038    0.985428    2.769940    13.848683    2.801614    -56.268776    23.133970    -18.363085    4.486608    -3.179459    -14.688520    26.347273    -2.729506    -0.547624    7.199348    16.102039    -9.512650    47.719383    36.255081    28.373466    -5.135237    -12.966274    21.426825    -21.751030    -11.465168    -2.932888    3.049044    -23.954420    -0.430217    -3.198401    23.623951    20.445305    -0.207615    -12.105574    -12.767245    0.210956    -1.776205    -0.234599    -23.973715    -38.310112    -11.336977    14.574239    34.720947    -8.640102    21.861305    14.089659    1.663222    -0.788766    -3.090222    0.856835    
-14.249444    84.814819    104.912613    -1.664514    -14.219336    164.334671    -2.073948    -8.445683    -0.454542    5.469584    0.681423    -0.334084    5.311669    6.680567    1.871218    -0.011710    -3.512714    1.473940    2.643745    13.870510    2.813064    -56.071476    23.211107    -18.354668    4.491930    -3.456952    -14.561808    25.989296    -2.954702    -0.308911    7.192184    16.137180    -9.445889    47.735302    35.549114    28.275429    -5.084877    -13.036870    21.493990    -22.071175    -11.509587    -3.061377    3.245598    -24.076124    -0.355987    -3.602932    23.877508    21.461971    -0.083567    -12.225716    -12.667194    0.187501    -1.805996    -0.208527    -25.393423    -40.597698    -13.205498    15.562691    37.709736    -9.075014    22.667561    14.796221    1.415102    -0.447495    -2.810847    0.485919    
-14.537752    84.743652    105.069077    -1.720172    -14.155849    163.248978    -1.892433    -8.027219    -0.474224    5.596949    0.653516    -0.373502    5.354538    6.679774    2.396136    -0.381345    -3.723661    1.951733    2.502096    13.880997    2.817732    -55.819939    23.297876    -18.409874    4.499342    -3.701870    -14.469847    25.578405    -3.150178    -0.083368    7.182076    16.179119    -9.371802    47.748669    34.802406    28.162203    -5.014060    -13.105993    21.567608    -22.404154    -11.553751    -3.196416    3.466640    -24.243307    -0.270232    -4.048191    24.226980    22.478132    0.027391    -12.371385    -12.579933    0.159833    -1.832637    -0.177766    -27.023731    -42.946678    -15.371650    16.579624    40.889820    -9.526204    23.337107    15.362306    1.216349    -0.104320    -2.510923    0.113230    
-14.808270    84.651505    105.216217    -1.758615    -14.081443    162.275192    -1.711980    -7.624712    -0.481867    5.709258    0.673709    -0.401453    5.370299    6.649997    2.869649    -0.712367    -3.958808    2.382465    2.360977    13.877660    2.812857    -55.540512    23.372543    -18.527044    4.514377    -3.891441    -14.419896    25.153931    -3.297140    0.107272    7.170949    16.222918    -9.296988    47.756264    34.076900    28.042768    -4.930408    -13.169835    21.627966    -22.720778    -11.596845    -3.323992    3.696627    -24.449043    -0.167309    -4.498221    24.653353    23.405687    0.121890    -12.534295    -12.507770    0.131376    -1.855225    -0.146122    -28.792631    -45.188683    -17.683649    17.603348    44.033760    -10.009025    23.815060    15.764087    1.102600    0.204229    -2.230948    -0.221577    
-15.084067    84.530823    105.366806    -1.782757    -13.993541    161.332336    -1.516214    -7.207419    -0.478648    5.813019    0.741168    -0.420918    5.366627    6.589043    3.331057    -1.033710    -4.235597    2.800853    2.215686    13.860111    2.795495    -55.220612    23.426517    -18.712416    4.542994    -4.039950    -14.409464    24.694439    -3.406194    0.275699    7.159369    16.270098    -9.216142    47.754425    33.322632    27.909201    -4.830316    -13.234776    21.666067    -23.041197    -11.644287    -3.451841    3.954106    -24.713039    -0.027900    -4.984779    25.193134    24.308784    0.213173    -12.728982    -12.441087    0.100904    -1.876721    -0.112234    -30.895851    -47.508900    -20.345634    18.778984    47.400368    -10.613540    24.150612    16.046881    1.053899    0.499497    -1.960220    -0.541722    
-15.344325    84.388908    105.509697    -1.789472    -13.901366    160.497192    -1.316546    -6.808767    -0.465155    5.896416    0.850087    -0.430741    5.347164    6.499460    3.743279    -1.320189    -4.532391    3.172694    2.083051    13.827968    2.764339    -54.895287    23.441605    -18.951097    4.589530    -4.131709    -14.444857    24.248503    -3.464206    0.404472    7.148730    16.314697    -9.135908    47.741600    32.607323    27.771393    -4.723792    -13.295424    21.662155    -23.334105    -11.693750    -3.564103    4.218880    -25.021614    0.148782    -5.464516    25.815422    25.104349    0.296821    -12.944297    -12.385143    0.070924    -1.896442    -0.078891    -33.245159    -49.724777    -23.188839    20.115688    50.736092    -11.370107    24.315958    16.182646    1.060658    0.755753    -1.730935    -0.819373    
-15.594679    84.224487    105.648109    -1.779224    -13.806542    159.749878    -1.108009    -6.422295    -0.443518    5.961311    0.995896    -0.433153    5.316286    6.384535    4.116584    -1.580738    -4.852969    3.506901    1.963790    13.781060    2.717436    -54.570492    23.410391    -19.236549    4.658319    -4.172359    -14.528887    23.824415    -3.474825    0.496786    7.138596    16.354000    -9.053798    47.717110    31.926294    27.625200    -4.611945    -13.351376    21.605192    -23.600779    -11.745361    -3.659519    4.493994    -25.378941    0.372361    -5.938147    26.528055    25.802654    0.376203    -13.184218    -12.338706    0.040644    -1.915140    -0.045212    -35.933601    -51.871178    -26.291927    21.738052    54.094727    -12.375059    24.336012    16.180519    1.093294    0.981421    -1.541529    -1.063753    
-15.833529    84.039345    105.781136    -1.751328    -13.712113    159.094589    -0.890327    -6.051556    -0.415886    6.007890    1.172685    -0.430355    5.276683    6.248385    4.449506    -1.815137    -5.193018    3.802123    1.860505    13.721216    2.654716    -54.257900    23.327869    -19.559612    4.752307    -4.165150    -14.664804    23.440479    -3.440265    0.551666    7.128593    16.384129    -8.969078    47.681206    31.292152    27.468819    -4.497291    -13.399457    21.485174    -23.836170    -11.797005    -3.733409    4.776176    -25.780478    0.647283    -6.392998    27.322840    26.389275    0.452228    -13.446489    -12.299598    0.009728    -1.932903    -0.010822    -39.002953    -53.917488    -29.676758    23.767618    57.438427    -13.739535    24.227837    16.043266    1.128749    1.176567    -1.393610    -1.275002    
-16.059021    83.836349    105.907562    -1.705526    -13.620484    158.533691    -0.664395    -5.700155    -0.384924    6.038212    1.374240    -0.424396    5.230428    6.096627    4.741329    -2.024900    -5.548017    4.057641    1.773321    13.650743    2.576902    -53.967052    23.194622    -19.909708    4.873052    -4.116070    -14.854609    23.110954    -3.365416    0.569407    7.117936    16.402565    -8.880959    47.634628    30.714985    27.301666    -4.381464    -13.436658    21.295797    -24.037636    -11.846380    -3.782463    5.061590    -26.217939    0.974263    -6.815975    28.185915    26.852737    0.525996    -13.726718    -12.264545    -0.022194    -1.950644    0.024689    -42.479816    -55.825809    -33.361221    26.344852    60.715641    -15.603059    24.011932    15.782568    1.152036    1.340912    -1.285604    -1.452874    
